<?xml version="1.0" encoding="utf-8"?>
<!-- Generator: Adobe Illustrator 16.0.0, SVG Export Plug-In . SVG Version: 6.00 Build 0)  -->
<!DOCTYPE svg PUBLIC "-//W3C//DTD SVG 1.1//EN" "http://www.w3.org/Graphics/SVG/1.1/DTD/svg11.dtd">
<svg version="1.1" id="Layer_1" xmlns="http://www.w3.org/2000/svg" xmlns:xlink="http://www.w3.org/1999/xlink" x="0px" y="0px"
	 width="427.95px" height="335.983px" viewBox="0 0 427.95 335.983" enable-background="new 0 0 427.95 335.983"
	 xml:space="preserve">
<rect x="13.899" y="297.401" fill="#966956" width="398" height="27"/>
<rect x="13.899" y="297.401" fill="#FFFFFF" width="398" height="9"/>
<polygon fill="#8BABC4" points="158.334,81.401 212.709,8.901 267.399,81.401 "/>
<rect x="157.899" y="81.401" fill="#B6876B" width="109" height="216"/>
<path fill="#FFFFFF" stroke="#000000" stroke-miterlimit="10" d="M199.574,296.401"/>
<polygon fill="#8BABC4" points="102.899,297.401 102.899,152.201 157.899,115.901 157.899,297.401 "/>
<polygon fill="#8BABC4" points="321.899,297.401 321.899,152.201 266.899,115.901 266.899,297.401 "/>
<path fill="#DEF0FF" d="M177.899,218.401v-76.28c0,0,2.475-38.72,34.311-38.72c31.835,0,34.689,38.167,34.689,38.167v76.833H177.899
	z"/>
<rect x="177.899" y="231.401" fill="#966956" width="69" height="66"/>
<polygon fill="#FFFFFF" points="156.979,81.401 270.824,81.401 266.988,92.401 156.979,92.401 153.455,81.401 "/>
<rect x="177.899" y="152.401" fill="#FFFFFF" width="69" height="13"/>
<rect x="13.899" y="160.401" fill="#B6876B" width="90" height="137"/>
<rect x="321.899" y="160.401" fill="#B6876B" width="90" height="137"/>
<polygon fill="#FFFFFF" points="13.962,152.401 103.899,152.401 103.899,160.401 13.962,160.401 8.899,152.401 "/>
<polygon fill="#E5E5E5" points="103.002,152.401 157.899,152.401 157.899,160.401 103.002,160.401 99.899,152.401 "/>
<polygon fill="#FFFFFF" points="412.012,152.401 321.899,152.401 321.899,160.401 412.012,160.401 416.399,152.401 "/>
<polygon fill="#E5E5E5" points="322.675,152.401 266.899,152.401 266.899,160.401 322.675,160.401 325.399,152.401 "/>
<rect x="23.899" y="168.401" fill="#4F4F4F" width="15" height="31"/>
<polygon fill="#E5E5E5" points="104.399,297.401 95.899,306.401 329.899,306.401 322.399,297.401 "/>
<polygon fill="#FFFFFF" points="86.899,315.401 95.899,306.401 329.899,306.401 338.899,315.401 "/>
<polygon fill="#E5E5E5" points="77.399,324.401 86.899,315.401 338.899,315.401 347.399,324.401 "/>
<rect x="51.899" y="168.401" fill="#4F4F4F" width="15" height="31"/>
<rect x="79.899" y="168.401" fill="#4F4F4F" width="15" height="31"/>
<rect x="23.899" y="213.401" fill="#4F4F4F" width="15" height="31"/>
<rect x="51.899" y="213.401" fill="#4F4F4F" width="15" height="31"/>
<rect x="79.899" y="213.401" fill="#4F4F4F" width="15" height="31"/>
<rect x="23.899" y="258.401" fill="#4F4F4F" width="15" height="31"/>
<rect x="51.899" y="258.401" fill="#4F4F4F" width="15" height="31"/>
<rect x="79.899" y="258.401" fill="#4F4F4F" width="15" height="31"/>
<rect x="331.899" y="168.401" fill="#4F4F4F" width="15" height="31"/>
<rect x="359.899" y="168.401" fill="#4F4F4F" width="15" height="31"/>
<rect x="387.899" y="168.401" fill="#4F4F4F" width="15" height="31"/>
<rect x="331.899" y="213.401" fill="#4F4F4F" width="15" height="31"/>
<rect x="359.899" y="213.401" fill="#4F4F4F" width="15" height="31"/>
<rect x="387.899" y="213.401" fill="#4F4F4F" width="15" height="31"/>
<rect x="331.899" y="258.401" fill="#4F4F4F" width="15" height="31"/>
<rect x="359.899" y="258.401" fill="#4F4F4F" width="15" height="31"/>
<rect x="387.899" y="258.401" fill="#4F4F4F" width="15" height="31"/>
<path fill="#DEF0FF" stroke="#FFFFFF" stroke-miterlimit="10" d="M195.399,152.901v-13.696c0,0,1-18.304,17.5-18.304
	s17.5,17.452,17.5,17.452v14.548H195.399z"/>
<rect x="194.399" y="165.901" fill="#DEF0FF" stroke="#FFFFFF" stroke-miterlimit="10" width="18" height="17"/>
<rect x="194.399" y="201.901" fill="#DEF0FF" stroke="#FFFFFF" stroke-miterlimit="10" width="18" height="17"/>
<rect x="194.399" y="182.901" fill="#DEF0FF" stroke="#FFFFFF" stroke-miterlimit="10" width="18" height="19"/>
<rect x="212.399" y="165.901" fill="#DEF0FF" stroke="#FFFFFF" stroke-miterlimit="10" width="17" height="17"/>
<rect x="212.399" y="201.901" fill="#DEF0FF" stroke="#FFFFFF" stroke-miterlimit="10" width="17" height="17"/>
<rect x="212.399" y="182.901" fill="#DEF0FF" stroke="#FFFFFF" stroke-miterlimit="10" width="17" height="19"/>
<rect x="229.399" y="165.901" fill="#DEF0FF" stroke="#FFFFFF" stroke-miterlimit="10" width="17" height="17"/>
<rect x="229.399" y="201.901" fill="#DEF0FF" stroke="#FFFFFF" stroke-miterlimit="10" width="17" height="17"/>
<rect x="229.399" y="182.901" fill="#DEF0FF" stroke="#FFFFFF" stroke-miterlimit="10" width="17" height="19"/>
<rect x="178.399" y="165.901" fill="#DEF0FF" stroke="#FFFFFF" stroke-miterlimit="10" width="16" height="17"/>
<rect x="178.399" y="201.901" fill="#DEF0FF" stroke="#FFFFFF" stroke-miterlimit="10" width="16" height="17"/>
<rect x="178.399" y="182.901" fill="#DEF0FF" stroke="#FFFFFF" stroke-miterlimit="10" width="16" height="19"/>
<rect x="103.899" y="160.401" fill="#966956" width="54" height="137"/>
<rect x="266.899" y="160.401" fill="#966956" width="55" height="137"/>
<polygon fill="#FFFFFF" points="149.483,231.401 146.305,218.401 276.751,218.401 274.01,231.401 "/>
<rect x="153.899" y="231.401" fill="#E5E5E5" width="11" height="66"/>
<rect x="259.899" y="231.401" fill="#E5E5E5" width="10" height="66"/>
<rect x="214.899" y="258.401" fill="#4F4F4F" width="13" height="39"/>
<rect x="230.899" y="258.401" fill="#4F4F4F" width="13" height="39"/>
<rect x="180.899" y="258.401" fill="#4F4F4F" width="13" height="39"/>
<rect x="196.899" y="258.401" fill="#4F4F4F" width="13" height="39"/>
</svg>
